<?xml version="1.0" encoding="utf-8"?>
<!-- Generator: Adobe Illustrator 15.0.0, SVG Export Plug-In . SVG Version: 6.00 Build 0)  -->
<!DOCTYPE svg PUBLIC "-//W3C//DTD SVG 1.1//EN" "http://www.w3.org/Graphics/SVG/1.1/DTD/svg11.dtd">
<svg version="1.1" id="Layer_1" xmlns="http://www.w3.org/2000/svg" xmlns:xlink="http://www.w3.org/1999/xlink" x="0px" y="0px"
	 width="720px" height="320px" viewBox="0 0 720 320" enable-background="new 0 0 720 320" xml:space="preserve">
<rect fill="#8D8D8E" stroke="#000000" stroke-miterlimit="10" width="723.444" height="322.593"/>
<path fill="#FFFFFF" d="M364.68,188.078c-24.518,0-44.47-17.649-44.47-39.329c0-21.679,19.952-39.33,44.47-39.33
	c24.512,0,44.469,17.65,44.469,39.33C409.148,170.429,389.191,188.078,364.68,188.078z M364.68,118.158
	c-19.075,0-34.587,13.725-34.587,30.591c0,16.867,15.512,30.591,34.587,30.591c19.068,0,34.587-13.724,34.587-30.591
	C399.267,131.883,383.748,118.158,364.68,118.158z"/>
<path fill="#FFFFFF" d="M470.258,223.302H250.887c-11.34,0-20.565-7.248-20.565-16.158V99.419c0-8.911,9.226-16.159,20.565-16.159
	h20.567c5.691,0,14.533-2.883,18.563-6.039l8.034-6.313c6.675-5.248,18.825-9.204,28.257-9.204h68.554
	c9.44,0,21.584,3.956,28.267,9.204l8.033,6.313c4.015,3.156,12.866,6.039,18.557,6.039h20.565c11.341,0,20.567,7.248,20.567,16.159
	v107.725c0,8.91-9.227,16.158-20.567,16.158H470.258z M250.887,94.034c-3.782,0-6.854,2.419-6.854,5.385v107.725
	c0,2.967,3.073,5.385,6.854,5.385h219.371c3.775,0,6.855-2.418,6.855-5.385V99.419c0-2.966-3.08-5.385-6.855-5.385h-20.565
	c-9.427,0-21.583-3.956-28.253-9.196l-8.034-6.311c-4.014-3.157-12.878-6.051-18.57-6.051h-68.552
	c-5.692,0-14.535,2.873-18.564,6.051l-8.035,6.311c-6.68,5.24-18.812,9.196-28.257,9.196H250.86H250.887z"/>
</svg>
