<?xml version="1.0" encoding="utf-8"?>
<!-- Generator: Adobe Illustrator 15.0.0, SVG Export Plug-In . SVG Version: 6.00 Build 0)  -->
<!DOCTYPE svg PUBLIC "-//W3C//DTD SVG 1.1//EN" "http://www.w3.org/Graphics/SVG/1.1/DTD/svg11.dtd">
<svg version="1.1" id="Capa_1" xmlns="http://www.w3.org/2000/svg" xmlns:xlink="http://www.w3.org/1999/xlink" x="0px" y="0px"
	 width="595.281px" height="538.58px" viewBox="0 0 595.281 538.58" enable-background="new 0 0 595.281 538.58"
	 xml:space="preserve">
<g>
	<path fill="#007BFF" d="M401.515,29.077c92.947,41.57,74.684,143.501,122.481,231.985c47.812,88.481,39.043,166.102-7.577,216.669
		c-46.614,50.558-164.408,72.585-275.471,6.479c-56.242-33.462-133.985-86.716-128.875-214.235
		C117.76,127.896,292.97-19.469,401.515,29.077z"/>
	<path opacity="0.34" fill="#6A64FF" enable-background="new    " d="M101.099,370.234
		c50.513,84.27,128.342,116.958,228.013,119.026c99.673,2.06,217.866-22.981,232.626-140.343
		c14.778-117.373-102.685-151.201-156.925-252.475C372.042,35.269,264.852,6.947,179.019,61.369
		C116.145,101.224,15.589,227.58,101.099,370.234z"/>
</g>
<path fill="#FFFFFF" d="M438.544,149.151c0.015,18.146-11.769,34.441-30.375,34.455c-18.63,0.016-33.171-13.935-60.437-13.913
	c-19.523,0.015-37.229,10.729-37.215,30.288c0.038,47.921,151.71,17.101,151.803,137.151
	c0.052,66.543-53.517,108.02-116.197,108.068c-34.963,0.025-110.364-8.295-110.399-52.054
	c-0.014-18.131,11.781-33.039,30.399-33.055c21.342-0.016,46.799,18.125,76.318,18.102c29.979-0.023,46.316-17.268,46.3-40.065
	c-0.043-54.903-151.718-21.769-151.801-129.736c-0.05-65.134,52.136-105.672,112.55-105.718
	C374.931,102.655,438.514,112.395,438.544,149.151"/>
</svg>
